<svg xmlns="http://www.w3.org/2000/svg" xmlns:xlink="http://www.w3.org/1999/xlink" width="300px" height="75px" viewBox="0 0 300 75"><g id="surface1"><path style=" stroke:none;fill-rule:nonzero;fill:rgb(100%,100%,100%);fill-opacity:1;" d="M 113.175781 18.824219 C 118.199219 18.523438 122.625 21.976562 123.601562 26.925781 L 117.074219 26.925781 C 116.398438 25.351562 114.824219 24.300781 113.101562 24.375 C 110.25 24.375 108.523438 26.550781 108.523438 29.851562 C 108.523438 33.148438 110.324219 35.398438 113.101562 35.398438 C 114.824219 35.476562 116.398438 34.425781 117.074219 32.851562 L 123.601562 32.851562 C 122.625 37.800781 118.199219 41.25 113.175781 40.949219 C 110.25 41.101562 107.324219 39.976562 105.300781 37.800781 C 103.199219 35.699219 102.148438 32.773438 102.375 29.851562 C 102.226562 26.925781 103.273438 24 105.375 21.976562 C 107.324219 19.800781 110.25 18.675781 113.175781 18.824219 "></path><path style=" stroke:none;fill-rule:nonzero;fill:rgb(100%,100%,100%);fill-opacity:1;" d="M 136.875 41.023438 C 133.875 41.101562 131.023438 39.898438 128.925781 37.800781 C 126.824219 35.699219 125.625 32.773438 125.699219 29.851562 C 126 23.925781 130.875 19.273438 136.875 19.273438 C 142.800781 19.273438 147.75 23.925781 148.050781 29.851562 C 148.125 32.851562 147 35.699219 144.898438 37.875 C 142.800781 39.898438 139.875 41.023438 136.875 41.023438 M 136.875 35.25 C 138.300781 35.25 139.726562 34.648438 140.625 33.601562 C 141.601562 32.550781 142.050781 31.125 141.898438 29.699219 C 142.125 27.75 141.300781 25.800781 139.648438 24.75 C 138 23.699219 135.898438 23.699219 134.25 24.75 C 132.601562 25.800781 131.699219 27.75 131.925781 29.699219 C 131.699219 31.125 132.148438 32.550781 133.125 33.601562 C 134.101562 34.648438 135.449219 35.25 136.875 35.25 "></path><path style=" stroke:none;fill-rule:nonzero;fill:rgb(100%,100%,100%);fill-opacity:1;" d="M 170.925781 18.976562 L 170.925781 40.726562 L 164.925781 40.726562 L 156.824219 28.574219 L 156.824219 40.726562 L 150.824219 40.726562 L 150.824219 18.976562 L 156.824219 18.976562 L 164.925781 31.273438 L 164.925781 18.976562 Z M 170.925781 18.976562 "></path><path style=" stroke:none;fill-rule:nonzero;fill:rgb(100%,100%,100%);fill-opacity:1;" d="M 182.625 41.023438 C 177.75 41.023438 174 38.699219 173.773438 34.050781 L 180.226562 34.050781 C 180.148438 34.648438 180.375 35.25 180.824219 35.699219 C 181.273438 36.148438 181.875 36.375 182.476562 36.300781 C 183.523438 36.300781 184.351562 35.773438 184.351562 34.726562 C 184.351562 31.199219 173.773438 32.851562 173.851562 25.273438 C 173.851562 21.074219 177.449219 18.75 182.023438 18.75 C 186.601562 18.75 190.425781 21.148438 190.425781 25.5 L 183.898438 25.5 C 183.976562 24.976562 183.75 24.449219 183.375 24 C 183 23.625 182.476562 23.398438 181.875 23.476562 C 181.425781 23.398438 181.050781 23.550781 180.75 23.851562 C 180.449219 24.148438 180.300781 24.523438 180.300781 24.976562 C 180.300781 28.199219 190.726562 27.226562 190.726562 34.199219 C 190.726562 38.023438 187.875 41.023438 182.625 41.023438 "></path><path style=" stroke:none;fill-rule:nonzero;fill:rgb(100%,100%,100%);fill-opacity:1;" d="M 192.375 18.976562 L 210 18.976562 L 210 23.773438 L 204.148438 23.773438 L 204.148438 40.726562 L 198.148438 40.726562 L 198.148438 23.851562 L 192.375 23.851562 Z M 192.375 18.976562 "></path><path style=" stroke:none;fill-rule:nonzero;fill:rgb(100%,100%,100%);fill-opacity:1;" d="M 221.773438 18.976562 C 227.175781 18.976562 229.875 22.125 229.875 25.949219 C 229.949219 28.949219 227.925781 31.574219 225 32.25 L 229.949219 40.726562 L 223.273438 40.726562 L 218.925781 32.699219 L 218.25 32.699219 L 218.25 40.726562 L 212.25 40.726562 L 212.25 18.976562 Z M 221.25 24.074219 L 218.398438 24.074219 L 218.398438 28.648438 L 221.25 28.648438 C 222.898438 28.648438 223.726562 27.824219 223.726562 26.324219 C 223.800781 25.648438 223.5 25.050781 223.050781 24.601562 C 222.523438 24.148438 221.925781 23.925781 221.25 24.074219 "></path><path style=" stroke:none;fill-rule:nonzero;fill:rgb(100%,100%,100%);fill-opacity:1;" d="M 232.5 18.976562 L 238.5 18.976562 L 238.5 31.726562 C 238.5 33.976562 239.476562 35.398438 241.800781 35.398438 C 244.125 35.398438 245.175781 33.898438 245.175781 31.726562 L 245.175781 18.976562 L 251.175781 18.976562 L 251.175781 31.726562 C 251.324219 34.273438 250.351562 36.75 248.550781 38.550781 C 246.75 40.351562 244.199219 41.25 241.648438 41.023438 C 239.175781 41.175781 236.699219 40.273438 234.898438 38.476562 C 233.101562 36.675781 232.273438 34.199219 232.425781 31.726562 Z M 232.5 18.976562 "></path><path style=" stroke:none;fill-rule:nonzero;fill:rgb(100%,100%,100%);fill-opacity:1;" d="M 264.675781 18.824219 C 269.699219 18.523438 274.125 21.976562 275.175781 26.925781 L 268.648438 26.925781 C 267.976562 25.351562 266.398438 24.300781 264.675781 24.375 C 261.824219 24.375 260.101562 26.550781 260.101562 29.851562 C 260.101562 33.148438 261.898438 35.398438 264.675781 35.398438 C 266.398438 35.476562 267.976562 34.425781 268.648438 32.851562 L 275.175781 32.851562 C 274.199219 37.800781 269.699219 41.25 264.675781 40.949219 C 261.675781 41.101562 258.824219 39.976562 256.800781 37.800781 C 254.699219 35.699219 253.648438 32.773438 253.875 29.851562 C 253.726562 26.925781 254.773438 24.074219 256.875 21.976562 C 258.898438 19.800781 261.75 18.675781 264.675781 18.824219 "></path><path style=" stroke:none;fill-rule:nonzero;fill:rgb(100%,100%,100%);fill-opacity:1;" d="M 276.824219 18.976562 L 294.375 18.976562 L 294.375 23.773438 L 288.523438 23.773438 L 288.523438 40.726562 L 282.523438 40.726562 L 282.523438 23.851562 L 276.824219 23.851562 Z M 276.824219 18.976562 "></path><path style=" stroke:none;fill-rule:nonzero;fill:rgb(51.764706%,76.862745%,25.490196%);fill-opacity:1;" d="M 103.125 49.875 L 117.898438 49.875 L 117.898438 54.675781 L 109.199219 54.675781 L 109.199219 58.5 L 115.648438 58.5 L 115.648438 63.148438 L 109.199219 63.148438 L 109.199219 71.625 L 103.199219 71.625 L 103.199219 49.875 Z M 103.125 49.875 "></path><path style=" stroke:none;fill-rule:nonzero;fill:rgb(51.764706%,76.862745%,25.490196%);fill-opacity:1;" d="M 134.324219 54.75 L 126.449219 54.75 L 126.449219 58.273438 L 133.351562 58.273438 L 133.351562 62.925781 L 126.449219 62.925781 L 126.449219 66.824219 L 134.324219 66.824219 L 134.324219 71.699219 L 120.375 71.699219 L 120.375 49.949219 L 134.324219 49.949219 Z M 134.324219 54.75 "></path><path style=" stroke:none;fill-rule:nonzero;fill:rgb(51.764706%,76.862745%,25.490196%);fill-opacity:1;" d="M 145.5 71.851562 C 140.625 71.851562 136.875 69.523438 136.648438 64.875 L 143.101562 64.875 C 143.101562 65.476562 143.324219 66.074219 143.699219 66.449219 C 144.148438 66.898438 144.675781 67.050781 145.273438 67.050781 C 146.324219 67.050781 147.148438 66.523438 147.148438 65.476562 C 147.148438 62.023438 136.574219 63.601562 136.648438 56.023438 C 136.648438 51.824219 140.25 49.5 144.824219 49.5 C 149.851562 49.5 153.074219 51.898438 153.449219 56.25 L 146.699219 56.25 C 146.773438 55.726562 146.550781 55.199219 146.175781 54.824219 C 145.800781 54.449219 145.273438 54.226562 144.75 54.300781 C 144.300781 54.300781 143.925781 54.449219 143.625 54.675781 C 143.324219 54.976562 143.175781 55.351562 143.175781 55.800781 C 143.175781 59.023438 153.675781 58.050781 153.675781 64.949219 C 153.675781 68.851562 150.75 71.851562 145.5 71.851562 "></path><path style=" stroke:none;fill-rule:nonzero;fill:rgb(51.764706%,76.862745%,25.490196%);fill-opacity:1;" d="M 155.25 49.875 L 172.800781 49.875 L 172.800781 54.675781 L 167.023438 54.675781 L 167.023438 71.625 L 160.949219 71.625 L 160.949219 54.675781 L 155.25 54.675781 Z M 155.25 49.875 "></path><path style=" stroke:none;fill-rule:nonzero;fill:rgb(51.764706%,76.862745%,25.490196%);fill-opacity:1;" d="M 5.476562 34.425781 L 8.324219 45.976562 L 12.898438 45.449219 L 18.375 44.699219 C 18.824219 42.523438 19.5 40.425781 20.476562 38.476562 L 12.898438 36.449219 Z M 5.476562 34.425781 "></path><path style=" stroke:none;fill-rule:nonzero;fill:rgb(51.764706%,76.862745%,25.490196%);fill-opacity:1;" d="M 17.550781 11.550781 L 9.449219 17.851562 L 17.476562 24.300781 L 24.824219 30.226562 L 28.949219 27.523438 L 22.425781 18.375 Z M 17.550781 11.550781 "></path><path style=" stroke:none;fill-rule:nonzero;fill:rgb(51.764706%,76.862745%,25.490196%);fill-opacity:1;" d="M 30.601562 9.675781 L 25.949219 15.226562 L 24.976562 16.5 L 30.601562 26.25 L 32.773438 24.824219 C 33.226562 24.523438 33.824219 24.300781 34.351562 24.226562 L 31.351562 12.226562 Z M 30.601562 9.675781 "></path><path style=" stroke:none;fill-rule:nonzero;fill:rgb(51.764706%,76.862745%,25.490196%);fill-opacity:1;" d="M 30.898438 3.523438 L 32.773438 11.476562 L 35.625 24.226562 C 36.449219 24.523438 37.125 25.125 37.574219 25.875 C 38.773438 25.648438 39.898438 25.574219 41.101562 25.574219 L 42.75 9.449219 L 43.351562 3.300781 Z M 30.898438 3.523438 "></path><path style=" stroke:none;fill-rule:nonzero;fill:rgb(51.764706%,76.862745%,25.490196%);fill-opacity:1;" d="M 68.101562 19.875 L 59.101562 11.550781 L 58.199219 13.050781 L 50.398438 27.523438 C 52.125 28.273438 53.773438 29.25 55.273438 30.375 L 67.351562 20.398438 Z M 68.101562 19.875 "></path><path style=" stroke:none;fill-rule:nonzero;fill:rgb(51.764706%,76.862745%,25.490196%);fill-opacity:1;" d="M 18.148438 47.550781 L 13.648438 48.675781 C 14.101562 50.398438 14.699219 52.125 15.523438 53.699219 C 15.976562 52.5 17.101562 51.75 18.375 51.824219 C 18.226562 50.398438 18.226562 48.976562 18.375 47.476562 "></path><path style=" stroke:none;fill-rule:nonzero;fill:rgb(51.764706%,76.862745%,25.490196%);fill-opacity:1;" d="M 15.824219 34.949219 L 20.175781 36.300781 C 19.726562 34.800781 20.25 33.226562 21.449219 32.324219 L 22.875 31.351562 L 18.523438 28.5 Z M 15.824219 34.949219 "></path><path style=" stroke:none;fill-rule:nonzero;fill:rgb(51.764706%,76.862745%,25.490196%);fill-opacity:1;" d="M 43.574219 17.324219 L 42.976562 25.949219 C 44.773438 26.101562 46.5 26.398438 48.226562 26.925781 L 53.625 14.398438 Z M 43.574219 17.324219 "></path><path style=" stroke:none;fill-rule:nonzero;fill:rgb(51.764706%,76.862745%,25.490196%);fill-opacity:1;" d="M 63.824219 39.75 L 70.574219 39.148438 L 69.375 23.625 L 57.074219 31.875 L 58.5 33.300781 C 59.398438 32.773438 60.601562 32.699219 61.574219 33.148438 C 62.550781 33.601562 63.300781 34.425781 63.523438 35.476562 C 64.125 36.898438 64.199219 38.398438 63.824219 39.75 "></path><path style=" stroke:none;fill-rule:nonzero;fill:rgb(51.764706%,76.862745%,25.490196%);fill-opacity:1;" d="M 63.449219 41.925781 C 63.601562 42.449219 63.75 42.898438 63.898438 43.425781 C 63.976562 45.824219 64.351562 48.226562 65.023438 50.550781 C 65.625 51.523438 66.75 52.050781 68.925781 51.75 C 70.199219 51.75 71.398438 52.425781 72.074219 53.476562 C 73.949219 49.5 74.925781 45.148438 74.925781 40.800781 Z M 63.449219 41.925781 "></path><path style=" stroke:none;fill-rule:nonzero;fill:rgb(100%,100%,100%);fill-opacity:1;" d="M 42.375 56.851562 C 36.074219 56.699219 23.625 56.625 17.25 56.851562 C 22.949219 66.226562 33.074219 71.925781 44.023438 71.851562 C 54.976562 71.773438 65.101562 66 70.648438 56.550781 C 61.199219 57.300781 51.75 57.375 42.375 56.851562 "></path></g></svg>